<?xml version="1.0" encoding="UTF-8"?>
<svg xmlns="http://www.w3.org/2000/svg" xmlns:xlink="http://www.w3.org/1999/xlink" viewBox="0 0 80 80" width="80" height="80">
<g id="surface33465207">
<path style=" stroke:none;fill-rule:nonzero;fill:rgb(18.039216%,80.000001%,44.313726%);fill-opacity:1;" d="M 12 12 L 84 12 L 84 84 L 12 84 Z M 12 12 "/>
<path style=" stroke:none;fill-rule:nonzero;fill:rgb(100%,100%,100%);fill-opacity:1;" d="M 54.980469 44 L 28.453125 44 L 28.453125 50.527344 L 37.96875 50.527344 L 37.96875 80 L 45.507812 80 L 45.507812 50.527344 L 54.980469 50.527344 Z M 54.980469 44 "/>
<path style=" stroke:none;fill-rule:nonzero;fill:rgb(100%,100%,100%);fill-opacity:1;" d="M 78.386719 52.167969 C 78.386719 52.167969 74.8125 49.785156 70.773438 49.785156 C 66.734375 49.785156 65.28125 51.703125 65.28125 53.757812 C 65.28125 59.050781 80.042969 58.523438 80.042969 69.179688 C 80.042969 85.597656 57.535156 78.316406 57.535156 78.316406 L 57.535156 70.441406 C 57.535156 70.441406 61.839844 73.683594 67 73.683594 C 72.160156 73.683594 71.964844 70.308594 71.964844 69.84375 C 71.964844 64.945312 57.335938 64.945312 57.335938 54.089844 C 57.335938 39.324219 78.652344 45.148438 78.652344 45.148438 Z M 78.386719 52.167969 "/>
</g>
</svg>
